<svg width="40" height="40" viewBox="0 0 40 40" fill="none" xmlns="http://www.w3.org/2000/svg">
<path opacity="0.2" d="M21.25 5.00013V33.7501H6.25V13.3361C6.24987 13.1302 6.30057 12.9275 6.39761 12.746C6.49465 12.5645 6.63502 12.4097 6.80625 12.2954L19.3062 3.96263C19.4943 3.83715 19.7129 3.76503 19.9387 3.75394C20.1645 3.74286 20.3891 3.79323 20.5886 3.8997C20.7881 4.00616 20.9549 4.16473 21.0714 4.35851C21.1879 4.55229 21.2496 4.77404 21.25 5.00013Z" fill="#10B981"/>
<path d="M37.5 32.5002H35V15.0002C35 14.3371 34.7366 13.7012 34.2678 13.2324C33.7989 12.7636 33.163 12.5002 32.5 12.5002H22.5V5.00016C22.5003 4.54745 22.3777 4.10315 22.1452 3.71469C21.9127 3.32623 21.5791 3.00819 21.18 2.79452C20.7808 2.58085 20.3312 2.47956 19.879 2.50146C19.4268 2.52337 18.9891 2.66765 18.6125 2.91891L6.1125 11.2502C5.76959 11.4789 5.48858 11.789 5.29448 12.1526C5.10038 12.5163 4.99922 12.9223 5 13.3345V32.5002H2.5C2.16848 32.5002 1.85054 32.6319 1.61612 32.8663C1.3817 33.1007 1.25 33.4186 1.25 33.7502C1.25 34.0817 1.3817 34.3996 1.61612 34.634C1.85054 34.8685 2.16848 35.0002 2.5 35.0002H37.5C37.8315 35.0002 38.1495 34.8685 38.3839 34.634C38.6183 34.3996 38.75 34.0817 38.75 33.7502C38.75 33.4186 38.6183 33.1007 38.3839 32.8663C38.1495 32.6319 37.8315 32.5002 37.5 32.5002ZM32.5 15.0002V32.5002H22.5V15.0002H32.5ZM7.5 13.3345L20 5.00016V32.5002H7.5V13.3345ZM17.5 17.5002V20.0002C17.5 20.3317 17.3683 20.6496 17.1339 20.884C16.8995 21.1185 16.5815 21.2502 16.25 21.2502C15.9185 21.2502 15.6005 21.1185 15.3661 20.884C15.1317 20.6496 15 20.3317 15 20.0002V17.5002C15 17.1686 15.1317 16.8507 15.3661 16.6163C15.6005 16.3819 15.9185 16.2502 16.25 16.2502C16.5815 16.2502 16.8995 16.3819 17.1339 16.6163C17.3683 16.8507 17.5 17.1686 17.5 17.5002ZM12.5 17.5002V20.0002C12.5 20.3317 12.3683 20.6496 12.1339 20.884C11.8995 21.1185 11.5815 21.2502 11.25 21.2502C10.9185 21.2502 10.6005 21.1185 10.3661 20.884C10.1317 20.6496 10 20.3317 10 20.0002V17.5002C10 17.1686 10.1317 16.8507 10.3661 16.6163C10.6005 16.3819 10.9185 16.2502 11.25 16.2502C11.5815 16.2502 11.8995 16.3819 12.1339 16.6163C12.3683 16.8507 12.5 17.1686 12.5 17.5002ZM12.5 26.2502V28.7502C12.5 29.0817 12.3683 29.3996 12.1339 29.634C11.8995 29.8685 11.5815 30.0002 11.25 30.0002C10.9185 30.0002 10.6005 29.8685 10.3661 29.634C10.1317 29.3996 10 29.0817 10 28.7502V26.2502C10 25.9186 10.1317 25.6007 10.3661 25.3663C10.6005 25.1319 10.9185 25.0002 11.25 25.0002C11.5815 25.0002 11.8995 25.1319 12.1339 25.3663C12.3683 25.6007 12.5 25.9186 12.5 26.2502ZM17.5 26.2502V28.7502C17.5 29.0817 17.3683 29.3996 17.1339 29.634C16.8995 29.8685 16.5815 30.0002 16.25 30.0002C15.9185 30.0002 15.6005 29.8685 15.3661 29.634C15.1317 29.3996 15 29.0817 15 28.7502V26.2502C15 25.9186 15.1317 25.6007 15.3661 25.3663C15.6005 25.1319 15.9185 25.0002 16.25 25.0002C16.5815 25.0002 16.8995 25.1319 17.1339 25.3663C17.3683 25.6007 17.5 25.9186 17.5 26.2502Z" fill="#10B981"/>
</svg>
