<svg width="40" height="40" viewBox="0 0 40 40" fill="none" xmlns="http://www.w3.org/2000/svg">
<path opacity="0.2" d="M21.25 16.875C21.25 18.482 20.7735 20.0529 19.8807 21.389C18.9879 22.7252 17.719 23.7666 16.2343 24.3815C14.7497 24.9965 13.116 25.1574 11.5399 24.8439C9.9638 24.5304 8.51606 23.7565 7.37976 22.6202C6.24346 21.4839 5.46963 20.0362 5.15612 18.4601C4.84262 16.884 5.00352 15.2503 5.61848 13.7657C6.23344 12.281 7.27485 11.0121 8.611 10.1193C9.94714 9.22652 11.518 8.75 13.125 8.75C15.2799 8.75 17.3465 9.60602 18.8702 11.1298C20.394 12.6535 21.25 14.7201 21.25 16.875Z" fill="#10B981"/>
<path d="M18.3203 24.6749C19.9956 23.5596 21.2676 21.9347 21.948 20.0406C22.6284 18.1465 22.6812 16.0837 22.0986 14.1572C21.516 12.2308 20.3289 10.543 18.7129 9.34338C17.0968 8.14378 15.1376 7.49609 13.125 7.49609C11.1124 7.49609 9.1532 8.14378 7.53716 9.34338C5.92111 10.543 4.73402 12.2308 4.15141 14.1572C3.5688 16.0837 3.62162 18.1465 4.30204 20.0406C4.98247 21.9347 6.25439 23.5596 7.9297 24.6749C4.89922 25.7918 2.31112 27.8587 0.551579 30.5671C0.459104 30.7045 0.39487 30.859 0.362612 31.0215C0.330354 31.184 0.330715 31.3512 0.363675 31.5136C0.396634 31.6759 0.461534 31.8301 0.554602 31.9671C0.64767 32.1042 0.76705 32.2214 0.905802 32.3119C1.04455 32.4024 1.19991 32.4644 1.36284 32.4943C1.52577 32.5242 1.69303 32.5215 1.85489 32.4862C2.01674 32.4509 2.16997 32.3838 2.30567 32.2888C2.44137 32.1938 2.55682 32.0727 2.64533 31.9327C3.78031 30.1871 5.33339 28.7526 7.16351 27.7596C8.99364 26.7665 11.0428 26.2464 13.125 26.2464C15.2072 26.2464 17.2564 26.7665 19.0865 27.7596C20.9166 28.7526 22.4697 30.1871 23.6047 31.9327C23.788 32.2052 24.0713 32.3946 24.3931 32.4599C24.715 32.5253 25.0496 32.4613 25.3247 32.2819C25.5998 32.1025 25.7932 31.822 25.8631 31.5011C25.9331 31.1802 25.8739 30.8447 25.6985 30.5671C23.9389 27.8587 21.3508 25.7918 18.3203 24.6749ZM6.25002 16.8749C6.25002 15.5152 6.65323 14.1859 7.40866 13.0554C8.1641 11.9248 9.23783 11.0436 10.4941 10.5232C11.7503 10.0029 13.1326 9.86673 14.4663 10.132C15.7999 10.3973 17.0249 11.0521 17.9864 12.0135C18.9479 12.975 19.6026 14.2 19.8679 15.5337C20.1332 16.8673 19.997 18.2496 19.4767 19.5058C18.9563 20.7621 18.0751 21.8358 16.9446 22.5913C15.814 23.3467 14.4848 23.7499 13.125 23.7499C11.3023 23.7478 9.55481 23.0228 8.26594 21.734C6.97708 20.4451 6.25208 18.6976 6.25002 16.8749ZM39.0844 32.2968C38.8067 32.4778 38.4685 32.5412 38.1442 32.4729C37.8198 32.4046 37.5358 32.2103 37.3547 31.9327C36.2211 30.186 34.6682 28.7509 32.8377 27.7583C31.0072 26.7657 28.9573 26.2471 26.875 26.2499C26.5435 26.2499 26.2256 26.1182 25.9911 25.8838C25.7567 25.6494 25.625 25.3314 25.625 24.9999C25.625 24.6684 25.7567 24.3504 25.9911 24.116C26.2256 23.8816 26.5435 23.7499 26.875 23.7499C27.8875 23.7489 28.8872 23.5244 29.8028 23.0923C30.7184 22.6601 31.5273 22.0311 32.1716 21.2502C32.8159 20.4692 33.2798 19.5556 33.5301 18.5745C33.7804 17.5935 33.811 16.5693 33.6195 15.5751C33.4281 14.5809 33.0195 13.6413 32.4228 12.8233C31.8262 12.0054 31.0562 11.3293 30.168 10.8434C29.2798 10.3575 28.2952 10.0738 27.2846 10.0125C26.274 9.95123 25.2623 10.1139 24.3219 10.489C24.1686 10.5552 24.0035 10.5901 23.8365 10.5915C23.6694 10.5929 23.5038 10.5609 23.3493 10.4972C23.1949 10.4335 23.0548 10.3395 22.9373 10.2208C22.8198 10.102 22.7273 9.96092 22.6653 9.80582C22.6033 9.65072 22.5729 9.48476 22.5761 9.31774C22.5793 9.15072 22.6159 8.98604 22.6838 8.83342C22.7518 8.6808 22.8496 8.54333 22.9715 8.42915C23.0934 8.31498 23.237 8.2264 23.3938 8.16865C25.5461 7.31029 27.94 7.2794 30.1137 8.08194C32.2874 8.88448 34.0869 10.4636 35.165 12.5146C36.2431 14.5656 36.5235 16.9433 35.952 19.1888C35.3806 21.4344 33.9977 23.3888 32.0703 24.6749C35.1008 25.7918 37.6889 27.8587 39.4485 30.5671C39.6295 30.8447 39.6929 31.183 39.6246 31.5073C39.5563 31.8317 39.362 32.1157 39.0844 32.2968Z" fill="#10B981"/>
</svg>
