<svg width="162" height="66" viewBox="0 0 162 66" fill="none" xmlns="http://www.w3.org/2000/svg">
<g clip-path="url(#clip0_77_314)">
<path d="M1.23427 1.28581H38.4534C44.6566 1.28581 49.4114 2.82198 52.7178 5.89431C56.0534 8.96664 57.7213 12.7705 57.7213 17.3058C57.7213 21.1097 56.5362 24.3722 54.1662 27.0934C52.5861 28.9075 50.2745 30.3413 47.2315 31.3947C51.8546 32.5066 55.2488 34.4231 57.414 37.1443C59.6086 39.8363 60.7058 43.2305 60.7058 47.3269C60.7058 50.6626 59.9304 53.6617 58.3796 56.3244C56.8288 58.9871 54.7075 61.0939 52.0155 62.6447C50.3477 63.6103 47.8313 64.3125 44.4664 64.7514C39.9895 65.3366 37.0196 65.6292 35.5566 65.6292H1.23427V1.28581ZM21.2922 26.5228H29.9386C33.0402 26.5228 35.1908 25.9961 36.3905 24.9428C37.6195 23.8601 38.2339 22.3093 38.2339 20.2904C38.2339 18.4177 37.6195 16.9547 36.3905 15.9013C35.1908 14.848 33.0841 14.3213 30.0703 14.3213H21.2922V26.5228ZM21.2922 51.8037H31.4309C34.8544 51.8037 37.2683 51.2039 38.6728 50.0042C40.0773 48.7753 40.7796 47.1367 40.7796 45.0885C40.7796 43.1866 40.0773 41.665 38.6728 40.5239C37.2976 39.3535 34.869 38.7683 31.387 38.7683H21.2922V51.8037Z" fill="#058177"/>
<path d="M98.1303 0.18855V65.6292H80.0474V22.7482C77.1214 24.972 74.2832 26.7715 71.5327 28.1468C68.8115 29.522 65.388 30.8387 61.2623 32.0969V17.4375C67.3485 15.4771 72.074 13.1216 75.4389 10.3711C78.8039 7.62067 81.4373 4.22647 83.3392 0.18855H98.1303Z" fill="#058177"/>
<path d="M161.798 0.454835V48.6346C157.04 48.0827 152.572 46.4136 148.393 43.6274C144.187 40.815 139.232 35.558 133.529 27.8566C130.033 23.1517 127.378 20.1421 125.564 18.8278C123.751 17.5136 122.029 16.8565 120.399 16.8565C118.638 16.8565 117.14 17.5136 115.905 18.8278C114.643 20.1158 114.012 21.7454 114.012 23.7168C114.012 25.767 114.656 27.4492 115.944 28.7634C117.232 30.0514 119.506 30.9188 122.765 31.3656L121.464 47.4518C116.943 46.821 113.421 45.6645 110.898 43.9823C108.348 42.3 106.403 39.9344 105.062 36.8854C103.696 33.8101 103.012 29.5651 103.012 24.1505C103.012 18.4993 103.656 14.1097 104.944 10.9818C106.232 7.82769 108.216 5.35693 110.898 3.56957C113.552 1.75593 116.536 0.849105 119.847 0.849105C123.37 0.849105 126.734 1.88735 129.941 3.96384C133.147 6.01404 136.67 9.75961 140.507 15.2005C142.741 18.4336 144.305 20.602 145.199 21.706C146.093 22.7837 147.262 24.0585 148.708 25.5304V0.454835H161.798Z" fill="#058177"/>
<path d="M102.988 65.4382V53.0926H111.317V54.5495H104.622V58.3727H110.415V59.8296H104.622V65.4382H102.988ZM118.425 65.4382V53.0926H127.351V54.5495H120.058V58.3306H126.888V59.7791H120.058V63.9813H127.638V65.4382H118.425ZM134.872 65.4382V53.0926H143.799V54.5495H136.506V58.3306H143.335V59.7791H136.506V63.9813H144.085V65.4382H134.872ZM151.286 65.4382V53.0926H155.538C156.498 53.0926 157.231 53.1515 157.736 53.2694C158.444 53.4322 159.047 53.727 159.547 54.1537C160.198 54.7038 160.684 55.4084 161.004 56.2674C161.329 57.1208 161.492 58.0976 161.492 59.198C161.492 60.1356 161.383 60.9665 161.164 61.6907C160.945 62.415 160.664 63.0157 160.322 63.4929C159.979 63.9645 159.603 64.3378 159.193 64.6129C158.789 64.8824 158.298 65.0873 157.719 65.2277C157.147 65.368 156.487 65.4382 155.74 65.4382H151.286ZM152.919 63.9813H155.555C156.369 63.9813 157.006 63.9055 157.467 63.7539C157.933 63.6024 158.303 63.389 158.578 63.1139C158.966 62.7265 159.266 62.2072 159.479 61.556C159.698 60.8991 159.808 60.1047 159.808 59.1728C159.808 57.8815 159.595 56.8906 159.168 56.2C158.747 55.5039 158.233 55.0379 157.627 54.8021C157.189 54.6337 156.484 54.5495 155.513 54.5495H152.919V63.9813Z" fill="#058177"/>
</g>
<defs>
<clipPath id="clip0_77_314">
<rect width="161.798" height="65.618" fill="white"/>
</clipPath>
</defs>
</svg>
