<svg width="106" height="48" viewBox="0 0 106 48" fill="none" xmlns="http://www.w3.org/2000/svg">
<g clip-path="url(#clip0_471_16416)">
<path d="M5.05509 4.68693H27.3865C31.1085 4.68693 33.9613 5.60863 35.9452 7.45203C37.9466 9.29543 38.9473 11.5777 38.9473 14.2989C38.9473 16.5812 38.2363 18.5388 36.8142 20.1715C35.8662 21.26 34.4792 22.1202 32.6534 22.7522C35.4273 23.4194 37.4638 24.5693 38.763 26.202C40.0797 27.8172 40.738 29.8537 40.738 32.3116C40.738 34.313 40.2728 36.1125 39.3423 37.7101C38.4118 39.3077 37.139 40.5718 35.5238 41.5022C34.5231 42.0816 33.0133 42.5029 30.9943 42.7663C28.3082 43.1174 26.5263 43.293 25.6485 43.293H5.05509V4.68693ZM17.0898 19.8291H22.2777C24.1387 19.8291 25.429 19.5131 26.1488 18.8811C26.8862 18.2315 27.2549 17.301 27.2549 16.0897C27.2549 14.9661 26.8862 14.0883 26.1488 13.4562C25.429 12.8242 24.165 12.5082 22.3567 12.5082H17.0898V19.8291ZM17.0898 34.9977H23.1731C25.2271 34.9977 26.6755 34.6378 27.5182 33.918C28.3609 33.1806 28.7823 32.1975 28.7823 30.9685C28.7823 29.8274 28.3609 28.9145 27.5182 28.2298C26.6931 27.5275 25.2359 27.1764 23.1467 27.1764H17.0898V34.9977Z" fill="#058177"/>
<path d="M63.1927 4.02857V43.293H52.343V17.5644C50.5873 18.8987 48.8844 19.9784 47.2341 20.8035C45.6014 21.6286 43.5473 22.4187 41.0719 23.1736V14.3779C44.7236 13.2017 47.5589 11.7884 49.5779 10.1381C51.5968 8.48784 53.1769 6.45132 54.318 4.02857H63.1927Z" fill="#058177"/>
<path d="M101.393 4.58812V33.496C98.5386 33.1648 95.8576 32.1634 93.35 30.4917C90.8267 28.8042 87.8539 25.65 84.4317 21.0292C82.3341 18.2062 80.7413 16.4004 79.6531 15.6119C78.5649 14.8234 77.5319 14.4291 76.5541 14.4291C75.4975 14.4291 74.5986 14.8234 73.8573 15.6119C73.1003 16.3847 72.7218 17.3625 72.7218 18.5453C72.7218 19.7754 73.1082 20.7847 73.881 21.5733C74.6538 22.346 76.0179 22.8665 77.9735 23.1346L77.1929 32.7863C74.4803 32.4078 72.367 31.7139 70.853 30.7046C69.3232 29.6952 68.1562 28.2759 67.3519 26.4465C66.5318 24.6013 66.1218 22.0543 66.1218 18.8055C66.1218 15.4148 66.5081 12.781 67.2809 10.9043C68.0537 9.01183 69.2444 7.52937 70.853 6.45696C72.4458 5.36877 74.2358 4.82468 76.223 4.82468C78.3362 4.82468 80.3549 5.44762 82.2789 6.69352C84.203 7.92364 86.3163 10.171 88.6188 13.4355C89.9593 15.3753 90.8977 16.6764 91.4339 17.3388C91.9701 17.9854 92.6719 18.7503 93.5393 19.6335V4.58812H101.393Z" fill="#058177"/>
<path d="M66.1073 43.9766V36.5692H71.1045V37.4433H67.0875V39.7373H70.5638V40.6114H67.0875V43.9766H66.1073ZM75.3693 43.9766V36.5692H80.7253V37.4433H76.3496V39.712H80.4474V40.5811H76.3496V43.1024H80.8971V43.9766H75.3693ZM85.2377 43.9766V36.5692H90.5937V37.4433H86.218V39.712H90.3158V40.5811H86.218V43.1024H90.7655V43.9766H85.2377ZM95.0859 43.9766V36.5692H97.6376C98.2136 36.5692 98.6532 36.6046 98.9563 36.6753C99.3808 36.773 99.7429 36.9498 100.043 37.2058C100.433 37.5359 100.725 37.9587 100.917 38.4741C101.112 38.9861 101.21 39.5722 101.21 40.2324C101.21 40.795 101.144 41.2935 101.013 41.7281C100.881 42.1626 100.713 42.523 100.508 42.8094C100.302 43.0923 100.076 43.3163 99.8305 43.4814C99.5879 43.6431 99.2932 43.766 98.9462 43.8502C98.6026 43.9345 98.2068 43.9766 97.7588 43.9766H95.0859ZM96.0661 43.1024H97.6477C98.1361 43.1024 98.5184 43.057 98.7946 42.966C99.0742 42.8751 99.2966 42.7471 99.4616 42.582C99.694 42.3496 99.8743 42.038 100.002 41.6472C100.134 41.2531 100.199 40.7765 100.199 40.2173C100.199 39.4425 100.071 38.848 99.8153 38.4337C99.5627 38.016 99.2544 37.7364 98.8906 37.5949C98.6279 37.4938 98.2052 37.4433 97.6224 37.4433H96.0661V43.1024Z" fill="#058177"/>
</g>
<defs>
<clipPath id="clip0_471_16416">
<rect width="97.0787" height="39.3708" fill="white" transform="translate(4.31454 4.31445)"/>
</clipPath>
</defs>
</svg>
